<svg version="1.1" viewBox="0.0 0.0 326.0 165.28871391076115" fill="none" stroke="none" stroke-linecap="square" stroke-miterlimit="10" xmlns:xlink="http://www.w3.org/1999/xlink" xmlns="http://www.w3.org/2000/svg"><clipPath id="p.0"><path d="m0 0l326.0 0l0 165.28871l-326.0 0l0 -165.28871z" clip-rule="nonzero"/></clipPath><g clip-path="url(#p.0)"><path fill="#000000" fill-opacity="0.0" d="m0 0l326.0 0l0 165.28871l-326.0 0z" fill-rule="evenodd"/><path fill="#000000" fill-opacity="0.0" d="m0 16.860893l381.98425 0l0 156.28348l-381.98425 0z" fill-rule="evenodd"/><path fill="#ffffff" d="m57.125 130.80339q0 -4.6874924 -3.53125 -7.2812424q-3.53125 -2.59375 -12.3125 -4.46875q-8.78125 -1.875 -13.9375 -4.5q-5.15625 -2.625 -7.625 -6.25q-2.46875 -3.625 -2.46875 -8.625q0 -8.3125 7.03125 -14.0625q7.03125 -5.75 17.96875 -5.75q11.5 0 18.65625 5.9375q7.15625 5.9375 7.15625 15.1875l-11.625 0q0 -4.75 -4.03125 -8.1875q-4.03125 -3.4375 -10.15625 -3.4375q-6.3125 0 -9.875 2.75q-3.5625 2.75 -3.5625 7.1875q0 4.1875 3.3125 6.3125q3.3125 2.125 11.96875 4.0625q8.65625 1.9375 14.03125 4.625q5.375 2.6875 7.96875 6.46875q2.59375 3.78125 2.59375 9.218742q0 9.0625 -7.25 14.53125q-7.25 5.46875 -18.8125 5.46875q-8.125 0 -14.375 -2.875q-6.25 -2.875 -9.78125 -8.03125q-3.53125 -5.15625 -3.53125 -11.156242l11.5625 0q0.3125 5.8124924 4.65625 9.218742q4.34375 3.40625 11.46875 3.40625q6.5625 0 10.53125 -2.65625q3.96875 -2.65625 3.96875 -7.09375zm37.5625 -49.687492l0.375 8.5q7.75 -9.75 20.25 -9.75q21.4375 0 21.625 24.1875l0 44.687492l-11.5625 0l0 -44.749992q-0.0625 -7.3125 -3.34375 -10.8125q-3.28125 -3.5 -10.21875 -3.5q-5.625 0 -9.875 3.0q-4.25 3.0 -6.625 7.875l0 48.187492l-11.5625 0l0 -67.62499l10.9375 0z" fill-rule="nonzero"/><path fill="#ffffff" d="m289.25803 132.80339l13.0 -51.687492l11.5625 0l-19.6875 67.62499l-9.375 0l-16.4375 -51.249992l-16.0 51.249992l-9.375 0l-19.625 -67.62499l11.5 0l13.3125 50.624992l15.75 -50.624992l9.3125 0l16.0625 51.687492z" fill-rule="nonzero"/><path fill="#ffffff" d="m172.90508 121.61688l0 0c-4.2008514 -6.062088 -2.670868 -14.3888855 3.4173126 -18.598427l0 0c2.923645 -2.021492 6.5289307 -2.803749 10.02272 -2.1746902c3.4937744 0.62905884 6.5898895 2.6179047 8.607208 5.529022l0 0c4.200836 6.062088 2.6708527 14.3888855 -3.417328 18.598427l0 0c-6.0881805 4.2095413 -14.429077 2.707756 -18.629913 -3.354332z" fill-rule="evenodd"/><path fill="#ffffff" d="m160.20901 89.54849c-1.2876892 -0.70316315 -2.6836395 -1.3314133 -4.1132812 -1.7769928c-10.804108 11.458153 -13.677383 28.587463 -6.7800293 42.942886c0.96728516 -1.1472626 1.9345856 -2.2945251 3.084793 -3.408928c-5.3784943 -12.85585 -2.4014282 -27.984924 7.8085175 -37.756966z" fill-rule="evenodd"/><path fill="#307bf3" d="m169.1466 117.54466c-0.7512207 -3.292984 -0.38978577 -6.7456055 1.0917358 -9.905479c1.043457 -2.2468414 2.5792847 -4.224243 4.368744 -5.6145554c-3.6020508 -4.981125 -8.2304535 -8.794777 -13.432297 -11.449257c-9.744553 9.33313 -12.573639 23.795502 -7.4222717 36.092712c4.184311 -4.1144257 9.464172 -7.309128 15.394089 -9.123421z" fill-rule="evenodd"/><path fill="#ffffff" d="m155.75143 133.49298c-0.9684448 -1.3985901 -1.8285828 -2.8720703 -2.580429 -4.420471c-1.0422363 1.0391693 -2.009964 2.185913 -2.9776917 3.3326569c0.7111511 1.258316 1.3478088 2.4090576 2.0927582 3.4848785c8.492416 12.26445 22.906433 18.046097 36.769974 16.093765c-0.819458 -1.1834106 -1.6051025 -2.5493164 -2.2824554 -3.9901276c-11.799088 1.0016327 -23.796158 -4.0651703 -31.022156 -14.500702z" fill-rule="evenodd"/><path fill="#307bf3" d="m177.46938 127.7414c-3.8275452 -1.7681656 -6.4907227 -4.9508133 -7.801132 -8.612404c-5.864319 1.9247284 -11.080215 5.228157 -15.169052 9.274658c0.71969604 1.4816437 1.542923 2.8916779 2.469696 4.2300873c6.915146 9.986603 18.390991 14.838989 29.674942 13.885666c-2.5545807 -5.237259 -4.0025177 -11.087738 -4.026367 -17.314224c-1.6769867 -0.21038818 -3.4965515 -0.626709 -5.1480865 -1.4637833z" fill-rule="evenodd"/><path fill="#ffffff" d="m203.40921 142.01917c-4.542343 3.142044 -9.612793 5.0594482 -14.663544 5.850281c0.7106781 1.2573395 1.4958038 2.6221771 2.3146362 3.804718c5.0844727 -0.97314453 10.080475 -2.9980469 14.730988 -6.21492c8.760239 -6.059662 14.273209 -14.9609375 16.059921 -24.623558c-1.4874115 0.3929062 -3.049286 0.6783066 -4.5029907 0.88890076c-1.9566345 8.031227 -6.692871 15.282249 -13.939011 20.294579z" fill-rule="evenodd"/><path fill="#307bf3" d="m198.02928 119.92374c-0.031982422 0.17478943 -0.16741943 0.4211502 -0.30285645 0.66750336c-2.494278 5.2368317 -7.7781525 8.4338 -13.3216095 8.604195c0.033843994 6.2361603 1.4916534 12.098038 4.1589813 17.275925c4.8361816 -0.7498627 9.689285 -2.5801544 14.034515 -5.585846c6.9316864 -4.794815 11.455627 -11.740952 13.315994 -19.440063c-5.8463135 0.8379059 -11.922104 0.460495 -17.885025 -1.5217133z" fill-rule="evenodd"/><path fill="#ffffff" d="m164.64276 86.00172c10.921097 -7.5543747 24.57669 -7.9263306 35.41243 -2.208725c0.26878357 -1.4594574 0.46302795 -3.0265503 0.54914856 -4.518852c-11.998901 -5.5497894 -26.66861 -4.794739 -38.346603 3.2832108c-1.6219482 1.1219406 -3.277481 2.4263077 -4.642227 3.6887207c1.3940887 0.627594 2.7881927 1.2551804 4.1822968 1.8827744c0.89863586 -0.78079987 1.8717957 -1.4539642 2.8449554 -2.1271286z" fill-rule="evenodd"/><path fill="#307bf3" d="m190.5538 100.28833c0.6671753 0.29989624 1.4056549 0.70275116 2.0405731 1.1772537c3.5520935 -5.0458374 5.944687 -10.660141 6.7312317 -16.381744c-10.371002 -5.4654007 -23.445297 -5.1015778 -33.90567 2.1341095c-0.9320984 0.64476776 -1.864212 1.2895355 -2.7250366 2.037262c5.1693726 2.8199997 9.866669 6.7279434 13.431473 11.876099c4.285309 -2.6596909 9.614548 -3.1481628 14.427429 -0.84297943z" fill-rule="evenodd"/><path fill="#ffffff" d="m201.77754 85.30305c4.0818176 2.4172592 7.626892 5.6822357 10.377975 9.655243c5.3534546 7.7312546 6.9643097 16.780876 5.465927 25.281448c1.4571991 -0.21392822 3.0229492 -0.5029373 4.439987 -1.0067062c1.1266327 -9.037476 -0.7816467 -18.516602 -6.4325104 -26.677376c-3.494629 -5.046791 -8.143051 -8.977844 -13.288071 -11.771339c-0.09062195 1.4919815 -0.28979492 3.059044 -0.5633087 4.51873z" fill-rule="evenodd"/><path fill="#307bf3" d="m201.01752 86.44828c-0.99902344 5.874542 -3.399582 11.498924 -7.1368256 16.523354c4.457794 3.7769547 6.2942963 9.976936 4.6983185 15.654594c5.865753 2.0407486 11.952057 2.4043884 17.668457 1.346878c1.4207001 -8.148155 -0.1368866 -16.827911 -5.276123 -24.24981c-2.6409912 -3.8140259 -6.0411377 -6.950485 -9.953827 -9.275017z" fill-rule="evenodd"/></g></svg>